<svg viewBox="600 600 1800 1800" xmlns="http://www.w3.org/2000/svg">
  <defs>
    <clipPath id="loading-clip-path" clipPathUnits="objectBoundingBox">
      <path d="M 0.5 0.828125 C 0.492188 0.820312 0.492188 0.78125 0.492188 0.5 C 0.492188 0.21875 0.492188 0.179688 0.5 0.171875 C 0.503906 0.164062 0.503906 0.164062 0.648438 0.164062 C 0.804688 0.164062 0.828125 0.164062 0.875 0.183594 C 0.902344 0.199219 0.933594 0.226562 0.945312 0.253906 C 0.972656 0.296875 0.976562 0.363281 0.960938 0.410156 C 0.953125 0.441406 0.941406 0.457031 0.917969 0.476562 C 0.902344 0.492188 0.902344 0.492188 0.921875 0.507812 C 0.980469 0.558594 0.996094 0.65625 0.957031 0.734375 C 0.945312 0.765625 0.90625 0.800781 0.878906 0.8125 C 0.832031 0.835938 0.8125 0.835938 0.652344 0.835938 C 0.503906 0.835938 0.503906 0.835938 0.5 0.828125 Z M 0.8125 0.722656 C 0.859375 0.707031 0.878906 0.660156 0.867188 0.605469 C 0.859375 0.582031 0.835938 0.558594 0.8125 0.550781 C 0.800781 0.546875 0.765625 0.546875 0.703125 0.546875 C 0.613281 0.546875 0.613281 0.546875 0.644531 0.589844 C 0.753906 0.742188 0.746094 0.734375 0.769531 0.730469 C 0.785156 0.730469 0.804688 0.726562 0.8125 0.722656 Z M 0.820312 0.429688 C 0.839844 0.421875 0.851562 0.40625 0.859375 0.386719 C 0.867188 0.359375 0.859375 0.316406 0.84375 0.296875 C 0.839844 0.292969 0.828125 0.285156 0.816406 0.277344 C 0.800781 0.269531 0.792969 0.269531 0.703125 0.265625 C 0.613281 0.265625 0.613281 0.265625 0.6875 0.351562 C 0.765625 0.4375 0.765625 0.4375 0.785156 0.4375 C 0.792969 0.4375 0.808594 0.433594 0.820312 0.429688 Z M 0.820312 0.429688"/>
      <path d="M 0.0273438 0.828125 C 0.0195312 0.820312 0.0195312 0.179688 0.0273438 0.171875 C 0.03125 0.164062 0.132812 0.164062 0.140625 0.171875 C 0.144531 0.175781 0.144531 0.203125 0.144531 0.265625 C 0.144531 0.3125 0.148438 0.359375 0.148438 0.367188 C 0.148438 0.375 0.167969 0.398438 0.191406 0.429688 C 0.25 0.503906 0.300781 0.566406 0.351562 0.628906 C 0.375 0.660156 0.414062 0.710938 0.441406 0.742188 C 0.488281 0.800781 0.496094 0.816406 0.484375 0.828125 C 0.480469 0.832031 0.457031 0.832031 0.414062 0.832031 C 0.34375 0.832031 0.363281 0.855469 0.210938 0.652344 C 0.148438 0.570312 0.148438 0.570312 0.148438 0.695312 C 0.144531 0.78125 0.144531 0.824219 0.140625 0.828125 C 0.136719 0.835938 0.0351562 0.835938 0.0273438 0.828125 Z M 0.0273438 0.828125"/>
      <path d="M 0.273438 0.433594 C 0.261719 0.421875 0.257812 0.441406 0.328125 0.238281 C 0.339844 0.203125 0.351562 0.175781 0.355469 0.171875 C 0.359375 0.167969 0.375 0.167969 0.421875 0.167969 C 0.484375 0.167969 0.484375 0.167969 0.488281 0.183594 C 0.488281 0.195312 0.480469 0.207031 0.386719 0.320312 C 0.332031 0.386719 0.285156 0.441406 0.285156 0.441406 C 0.28125 0.445312 0.277344 0.441406 0.273438 0.433594 Z M 0.273438 0.433594"/>
    </clipPath>
  </defs>
</svg>
