<?xml version="1.0" encoding="UTF-8"?>
<!DOCTYPE svg  PUBLIC '-//W3C//DTD SVG 20010904//EN'  'http://www.w3.org/TR/2001/REC-SVG-20010904/DTD/svg10.dtd'>
<svg version="1.0" viewBox="0 0 3000 3000" xmlns="http://www.w3.org/2000/svg">
  <g fill="#dbad11" xmlns="http://www.w3.org/2000/svg">
    <path d="M646.5 2091 c-12.8 -12.8 -12.8 -1169.3 0 -1182 12.8 -12.8 194.3 -12.8 207 0 6.8 6.8 9 54 9 168 0 87 2.3 169.5 4.5 183 3 15 33 57.8 75.8 111.8 108 132 201 249 288.8 360.8 44.3 55.5 117 148.5 162.8 206.3 83.3 105 96 130.5 74.3 152.3 -6 6 -44.3 9 -123.8 9 -129 0 -87.8 37.5 -362.3 -323.3 -116.3 -153 -116.3 -153 -118.5 75 -0.8 153 -4.5 231.8 -9.8 238.5 -11.3 13.5 -194.3 14.3 -207.8 0.8z"/>
    </g>
</svg>
