<?xml version="1.0" encoding="UTF-8"?>
<!DOCTYPE svg  PUBLIC '-//W3C//DTD SVG 20010904//EN'  'http://www.w3.org/TR/2001/REC-SVG-20010904/DTD/svg10.dtd'>
<svg version="1.0" viewBox="0 0 3000 3000" xmlns="http://www.w3.org/2000/svg">
  <g fill="#dbad11" xmlns="http://www.w3.org/2000/svg">
    <path d="M1497 2091 c-10.5 -15 -12 -83.3 -12 -591 0 -507.8 1.5 -576 12 -591 11.3 -16.5 11.3 -16.5 271.5 -16.5 280.5 0 324.8 4.5 403.5 40.5 50.3 23.3 106.5 75.8 132.8 123 44.3 81.8 55.5 196.5 27 280.5 -18.8 56.3 -36 83.3 -77.3 120.8 -30.8 27.8 -30.8 27.8 5.3 58.5 106.5 91.5 134.3 265.5 64.5 409.5 -24 49.5 -91.5 115.5 -144 140.3 -80.3 37.5 -120 42 -408 42 -264 0 -264 0 -275.3 -16.5z m567.8 -191.3 c83.3 -26.3 120 -108 93.8 -210 -11.3 -45 -51.8 -86.3 -96.8 -99 -22.5 -6 -84.8 -8.3 -195.8 -6.8 -162 2.3 -162 2.3 -108.8 78 196.5 275.3 182.3 260.3 229.5 254.3 23.3 -2.3 58.5 -9.8 78 -16.5z m9 -526.5 c36 -16.5 58.5 -40.5 70.5 -75 17.3 -51.8 4.5 -132 -25.5 -165.8 -6.8 -7.5 -28.5 -21.8 -47.3 -30.8 -33 -16.5 -47.3 -18 -202.5 -20.3 -168 -3 -168 -3 -30 151.5 137.3 154.5 137.3 154.5 171 154.5 18.8 0 47.3 -6.8 63.8 -14.3z"/>
    </g>
</svg>
